PathFileType	4	(X/Y/Z)	20_2_50_p0_0-650.trc
DataRate	CameraRate	NumFrames	NumMarkers	Units	OrigDataRate	OrigDataStartFrame	OrigNumFrames
60.0	60.0	6	27	m	60.0	244	651
Frame#	Time	RHip			RKnee			RAnkle			RBigToe			RSmallToe			RHeel			LHip			LKnee			LAnkle			LBigToe			LSmallToe			LHeel			Neck			Head			Nose			RShoulder			RElbow			RWrist			RThumb			RIndex			RPinky			LShoulder			LElbow			LWrist			LThumb			LIndex			LPinky			
		X1	Y1	Z1	X2	Y2	Z2	X3	Y3	Z3	X4	Y4	Z4	X5	Y5	Z5	X6	Y6	Z6	X7	Y7	Z7	X8	Y8	Z8	X9	Y9	Z9	X10	Y10	Z10	X11	Y11	Z11	X12	Y12	Z12	X13	Y13	Z13	X14	Y14	Z14	X15	Y15	Z15	X16	Y16	Z16	X17	Y17	Z17	X18	Y18	Z18	X19	Y19	Z19	X20	Y20	Z20	X21	Y21	Z21	X22	Y22	Z22	X23	Y23	Z23	X24	Y24	Z24	X25	Y25	Z25	X26	Y26	Z26	X27	Y27	Z27	
244	4.066666666666666	0.3754348548683877	0.5189740554437065	0.90134915890891	0.33147478473375314	0.5988649533105749	1.3193852599486053	0.34028738674532943	0.7484608710446798	1.7665499848955288	0.3361010156989479	0.6131452473367652	1.7945254399080943	0.3836948887943121	0.6422678671283263	1.7999434036842594	0.324164857083782	0.8704960749606218	1.8382953124460606	0.18971002872557677	0.4933513486217935	0.9015840798946615	0.16518805436933565	0.5973582392996473	1.316891142442186	0.12835642512845513	0.8000727555902505	1.7766179612066415	0.16021047346796205	0.6654623212550713	1.819828020857057	0.10114010720941308	0.6943614805700393	1.8182023679128203	0.11864257478055981	0.8830559228150648	1.8294488067249461	0.26902010248910074	0.3649856504604511	0.3732061105041267	0.2602700615790084	0.24258466060180645	0.1498754193512029	0.26354548594710087	0.19018621558781149	0.2860179929570153	0.40295825537568003	0.44282922585669504	0.4311957509439227	0.4527145309574839	0.5237017943998974	0.6627735077871434	0.4607276559726148	0.5637054674888812	0.9120385619659183	0.46814526492483816	0.4228262317227406	1.018447392285906	0.4819358392524776	0.45290710872680034	1.042052044236397	0.43060292057896704	0.5306087916940792	1.0495593030630885	0.12593334653448185	0.31601520245291	0.4740266046547524	0.0413583809398635	0.45871262987850714	0.6992488880659243	0.01611562110932406	0.45935604571651795	0.9279619375290057	0.05532789226601502	0.5161632901664209	1.0377011566772851	0.0425879970541402	0.49172284670545297	1.0676473124332466	0.01413997008789133	0.5446182449414535	1.0776935696900967
245	4.083333333333333	0.37423375795699326	0.517199338931521	0.9002952155790651	0.33153495421876095	0.5989566496255125	1.319375096918911	0.33910476785759847	0.7452003795126484	1.761292459203148	0.3316930368105482	0.6258624369280882	1.7951669300507094	0.38344671266329	0.642045226529555	1.7997748989439153	0.32298783482962257	0.8675262173550808	1.8333220781434998	0.19238379574094996	0.492989533107842	0.9044259743610454	0.16520349731169673	0.5973621936135316	1.3169440809443211	0.12841683603894055	0.800382451237961	1.7766801326420385	0.16036226356674368	0.6658690033695609	1.819993449177416	0.10627991211713039	0.6977139840021935	1.8197383844983348	0.11852275287684404	0.8828797178409552	1.8292668365404714	0.2689551117962635	0.3652703695112909	0.37316881747184	0.2603168736315908	0.2424557667633703	0.14987902754587584	0.26351005555513285	0.1901453109416471	0.28603654569918757	0.4029324707280673	0.44286724993784843	0.43127908725743874	0.4527145309574839	0.5237017943998974	0.6627735077871434	0.4607276559726148	0.5637054674888812	0.9120385619659183	0.46814526492483816	0.4228262317227406	1.018447392285906	0.4819358392524776	0.45290710872680034	1.042052044236397	0.43060292057896704	0.5306087916940792	1.0495593030630885	0.12620733935578068	0.31776322416156644	0.4773910814634734	0.037709920490453915	0.44426096443615	0.698485576451443	0.020302871336343405	0.4195362980606496	0.9234803425876178	0.05796034424278068	0.5128581819638365	1.0294506617158483	0.04769226632810761	0.47476805701662134	1.0623001912935461	0.017141708724623818	0.514045108193832	1.0711055954117013
246	4.1	0.37400406201537556	0.5136412161549545	0.8926916634709111	0.33051598509872787	0.5953990425729941	1.3140534879276191	0.3344952628760671	0.7434983072219913	1.760495378254829	0.3271476530934167	0.6113865262981625	1.7896975252310532	0.3795259703658001	0.6398893603326044	1.7950264198094055	0.3226544584622177	0.8667611716682235	1.8326666935911333	0.1935363314496397	0.4911440182590229	0.8971563468934851	0.16598166539131456	0.5956016021276608	1.3123610392736296	0.12848321894413292	0.8008631797231788	1.7767328854281528	0.16028152471205365	0.6655955615153993	1.8197896412251215	0.10567299749200865	0.6961251898996712	1.8185357390947945	0.12248581327674672	0.898729551891621	1.8346052356465035	0.2689539189692116	0.365372714584219	0.3731471903330737	0.26030648241085835	0.2427014146381353	0.14993785627988698	0.2635607904172838	0.1902099971270675	0.285997123751528	0.39897084192798027	0.4429482338820979	0.43141667401104333	0.4527145309574839	0.5237017943998974	0.6627735077871434	0.4607276559726148	0.5637054674888812	0.9120385619659183	0.46814526492483816	0.4228262317227406	1.018447392285906	0.4819358392524776	0.45290710872680034	1.042052044236397	0.43060292057896704	0.5306087916940792	1.0495593030630885	0.12637433900819184	0.3175321204103515	0.47740302858348005	0.039117498753508735	0.41791325907344756	0.6940846850914048	0.020848448021092057	0.42234219304236315	0.9277428914499104	0.06654842359731156	0.5144078737290175	1.0338226500932617	0.053953860731840164	0.5039493945179774	1.0732573766134983	0.02180575560944853	0.4999481138897355	1.0694122351563047
247	4.116666666666666	0.37405437376614487	0.5134221806546252	0.8929626967792923	0.33034191540479707	0.5950055608764807	1.313658477595492	0.33449275881888957	0.7433947983522685	1.7605530596805592	0.3270795417142597	0.6115390035997441	1.7897401601506495	0.37933432723382493	0.6396921890201064	1.7948610731344625	0.322592771294302	0.8661950630420343	1.832414913322427	0.193729091266487	0.4902786974957651	0.8970162605689702	0.16620856040777118	0.594245130501247	1.3158731280708325	0.1312828235865513	0.8131619969615002	1.776822446908654	0.16152145884155672	0.6534928778454453	1.8119334654306178	0.10503838248521012	0.6923156217326368	1.813194329190678	0.12223548421813578	0.8985309064105671	1.834360016823959	0.268972017252345	0.36539587579641236	0.37313670004921895	0.26322609451582524	0.23114962699159314	0.15189967325489517	0.26332712822237164	0.19048895882736797	0.2831243002853516	0.39493055141996086	0.44258694288461226	0.4316618748926913	0.4527145309574839	0.5237017943998974	0.6627735077871434	0.4607276559726148	0.5637054674888812	0.9120385619659183	0.46814526492483816	0.4228262317227406	1.018447392285906	0.4819358392524776	0.45290710872680034	1.042052044236397	0.43060292057896704	0.5306087916940792	1.0495593030630885	0.12966684332951922	0.3045195132613111	0.47455583032627385	0.03875137671749313	0.41892605447056774	0.6977077358214407	0.020266307969152655	0.42046454351997004	0.924005105919321	0.06139005820081467	0.4973466022650757	1.0277337231639811	0.050333715933380804	0.48871381653978024	1.067033616825371	0.020729275035665556	0.4995407084357898	1.064699648558659
248	4.133333333333334	0.3733764626494166	0.5106514149956911	0.8886977199186071	0.33052275163525385	0.5940804217947907	1.3176412697573128	0.33446162061019674	0.7435541634443444	1.7606981407831486	0.3226763333874643	0.5975479667730179	1.78451289628659	0.3732354464844942	0.6227502224456599	1.7843448006830107	0.323484194146442	0.8691385312739134	1.8373699830258647	0.19308733974154485	0.4885326980980612	0.896417662048575	0.16607269710047023	0.5955720323144589	1.3123075635332044	0.13126610886576934	0.8131022519800672	1.77672394560164	0.1560760918596519	0.6492801495178111	1.8102142962446246	0.10455195758465251	0.6919551808703144	1.812751901120752	0.12211550389648822	0.8981268440905043	1.8341833631198752	0.2689338196703031	0.3653773704537031	0.37309050359263113	0.2633619311734883	0.23121188474636598	0.15200229073915544	0.26001579074201947	0.1893861458518928	0.27997231267491063	0.3949237877266107	0.4426087126230449	0.43177271801426653	0.4527145309574839	0.5237017943998974	0.6627735077871434	0.4607276559726148	0.5637054674888812	0.9120385619659183	0.46814526492483816	0.4228262317227406	1.018447392285906	0.4819358392524776	0.45290710872680034	1.042052044236397	0.43060292057896704	0.5306087916940792	1.0495593030630885	0.12971950523014592	0.3042279776533557	0.47451272187246146	0.038964686367343904	0.4186817498124394	0.6899461680780624	0.023987375180327928	0.43513507241460014	0.9290890470677607	0.06328847437883989	0.5022478548121911	1.0283181494077922	0.05850846936239555	0.489907534796869	1.0625482717538157	0.02848745028623984	0.5183102368832128	1.0707055877178566
249	4.15	0.37339391319341003	0.5105070550158881	0.888490423465837	0.3306797737962371	0.5945541253181666	1.3177237568455944	0.33446527844719676	0.7436212102783012	1.7606415455583082	0.32698702178502165	0.6115172067916976	1.7896122014448974	0.3792404741498734	0.6397973130260163	1.7948541168338916	0.3222956143799662	0.8665456507772665	1.832478156688362	0.19272121943958964	0.4889053661963728	0.8996363770995897	0.16902855764331154	0.6108969313386593	1.3194348598818613	0.13120874780717287	0.8132058299375744	1.7767193898489397	0.15605074570422656	0.6495324048655506	1.8102178475294368	0.10448906394016498	0.6919812544549914	1.812649769766783	0.12226415593465062	0.8958885231513467	1.8372990435569627	0.2689864006899335	0.36523246686490557	0.3730970683704884	0.26330725876588446	0.2311629359215579	0.15195715964727152	0.25986897793982877	0.189869039350281	0.28322974328050043	0.39040487903502774	0.4303687789566717	0.43272219511851334	0.4527145309574839	0.5237017943998974	0.6627735077871434	0.4607276559726148	0.5637054674888812	0.9120385619659183	0.46814526492483816	0.4228262317227406	1.018447392285906	0.4819358392524776	0.45290710872680034	1.042052044236397	0.43060292057896704	0.5306087916940792	1.0495593030630885	0.1298131797913129	0.30447510653156484	0.47452869020878463	0.03607278349055206	0.40548743626787326	0.6930847644605781	0.01995739892941276	0.4185690616104198	0.9204005963509464	0.06252978444969419	0.4957862601051222	1.0192098822799367	0.059883994968565224	0.4778686351159336	1.0573645846289557	0.03373013483117586	0.47817083882499245	1.060369107465065
